<?xml version="1.0" standalone="no"?>
<!DOCTYPE svg PUBLIC "-//W3C//DTD SVG 20010904//EN"
 "http://www.w3.org/TR/2001/REC-SVG-20010904/DTD/svg10.dtd">
<svg version="1.0" xmlns="http://www.w3.org/2000/svg"
 width="903.000000pt" height="903.000000pt" viewBox="0 0 903.000000 903.000000"
 preserveAspectRatio="xMidYMid meet">
<metadata>
Created by potrace 1.14, written by Peter Selinger 2001-2017
</metadata>
<g transform="translate(0.000000,903.000000) scale(0.100000,-0.100000)"
fill="#000000" stroke="none">
<path d="M2400 8919 c-297 -52 -539 -261 -630 -544 -60 -190 -64 -384 -11
-600 38 -155 59 -211 208 -565 69 -162 154 -365 190 -450 36 -85 89 -211 118
-280 29 -69 104 -244 165 -390 261 -616 461 -1058 694 -1536 116 -235 131
-273 120 -290 -49 -77 -621 -955 -719 -1104 -729 -1105 -790 -1201 -871 -1365
-101 -206 -146 -366 -160 -570 -24 -357 133 -708 407 -915 311 -234 720 -272
1086 -100 216 101 390 250 575 490 57 74 386 569 801 1207 73 111 134 202 137
202 3 0 111 -163 240 -362 385 -595 674 -1027 743 -1112 156 -194 355 -352
542 -435 538 -236 1122 -33 1370 475 169 345 147 733 -64 1154 -59 116 -85
157 -465 739 -717 1098 -1086 1673 -1086 1693 0 6 60 124 134 262 310 586 412
791 1093 2212 373 777 423 891 469 1070 25 96 28 129 29 260 0 216 -35 349
-131 498 -215 332 -620 450 -996 292 -111 -47 -239 -136 -339 -235 -141 -139
-162 -171 -691 -1020 -128 -205 -488 -783 -666 -1070 -63 -102 -120 -191 -126
-197 -12 -13 -77 98 -551 942 -433 770 -559 993 -605 1066 -185 298 -421 494
-676 560 -91 23 -254 32 -334 18z m134 -636 c4 -9 1 -23 -7 -30 -11 -11 -16
-10 -31 6 -10 11 -15 25 -11 30 10 17 42 13 49 -6z m2801 -2360 c-22 -89 -173
-333 -205 -333 -19 0 -19 1 1 52 22 56 126 236 162 281 30 36 51 36 42 0z
m1030 -4383 c21 -40 19 -60 -5 -60 -29 0 -70 44 -70 74 0 47 48 38 75 -14z"/>
</g>
</svg>
