<?xml version="1.0" encoding="utf-8"?>
<svg viewBox="215.407 44.38 7070.7932 1899.4139"
	xmlns="http://www.w3.org/2000/svg">
	<defs>
		<linearGradient id="gradient-0" x1="1313.806" x2="1313.806" y1="142.036" y2="1919.38" gradientUnits="userSpaceOnUse" gradientTransform="matrix(0.844556, 0.621621, -0.869204, 0.98115, 1173.70712, -844.667772)">
			<stop offset="0" style="stop-color: rgb(82, 249, 191);"/>
			<stop offset="1" style="stop-color: rgb(70, 188, 104);"/>
		</linearGradient>
		<linearGradient gradientUnits="userSpaceOnUse" x1="3051.433" y1="574.165" x2="3051.433" y2="1943.794" id="gradient-3" gradientTransform="matrix(-0.682802, -0.738478, 0.824244, -0.729204, 4075.654587, 4452.888671)">
			<stop offset="0" style="stop-color: rgb(241, 34, 45);"/>
			<stop offset="1" style="stop-color: rgb(255, 115, 115);"/>
		</linearGradient>
		<linearGradient id="gradient-4" x1="4441.843" x2="4441.843" y1="44.38" y2="1943.794" gradientUnits="userSpaceOnUse" gradientTransform="matrix(0.707853, 0.706358, -0.549825, 0.550989, 1722.366189, -2367.065166)">
			<stop offset="0" style="stop-color: rgb(255, 227, 115);"/>
			<stop offset="1" style="stop-color: rgb(241, 135, 34);"/>
		</linearGradient>
		<radialGradient gradientUnits="userSpaceOnUse" cx="6532.861" cy="1030.708" r="742.188" id="gradient-2" gradientTransform="matrix(0.956152, -1.25531, 2.020824, 1.243261, -1868.90717, 7950.033203)">
			<stop offset="0" style="stop-color: rgb(86, 205, 255);"/>
			<stop offset="1" style="stop-color: rgb(51, 98, 255);"/>
		</radialGradient>
	</defs>
	<path d="M 1875.286 1449.927 L 2174.653 142.036 L 2510.102 142.036 L 2061.053 1919.38 L 1737.631 1919.38 L 1367.432 621.773 L 989.215 1919.38 L 664.456 1919.38 L 215.407 142.036 L 550.857 142.036 L 852.896 1447.486 L 1224.432 142.036 L 1507.761 142.036 L 1875.286 1449.927 Z" style="fill: url('#gradient-0'); paint-order: fill;" transform="matrix(1, 0, 0, 1, 0, 4.547473508864641e-13)">
		<title>W</title>
	</path>
	<path d="M 3105.877 1943.794 C 2912.737 1943.794 2756.177 1884.59 2636.197 1766.182 C 2516.216 1647.774 2456.226 1490.1 2456.226 1293.159 L 2456.226 1256.538 C 2456.226 1124.702 2482.354 1006.904 2534.61 903.145 C 2586.867 799.385 2660.235 718.615 2754.714 660.835 C 2849.194 603.055 2954.543 574.165 3070.761 574.165 C 3255.54 574.165 3398.304 631.538 3499.055 746.284 C 3599.805 861.031 3650.18 1023.384 3650.18 1233.345 L 3650.18 1352.974 L 2763.493 1352.974 C 2772.69 1462.023 2810.106 1548.286 2875.74 1611.763 C 2941.374 1675.24 3023.939 1706.978 3123.435 1706.978 C 3263.064 1706.978 3376.774 1652.046 3464.565 1542.183 L 3628.859 1694.771 C 3574.513 1773.71 3501.981 1834.948 3411.263 1878.487 C 3320.546 1922.025 3218.751 1943.794 3105.877 1943.794 Z M 3069.507 812.202 C 2985.896 812.202 2918.381 840.685 2866.961 897.652 C 2815.54 954.618 2782.724 1033.964 2768.51 1135.689 L 3349.183 1135.689 L 3349.183 1113.716 C 3342.494 1014.432 3315.321 939.359 3267.664 888.496 C 3220.005 837.633 3153.954 812.202 3069.507 812.202 Z" style="fill: url('#gradient-3');" transform="matrix(1, 0, 0, 1, 0, 4.547473508864641e-13)">
		<title>e</title>
	</path>
	<path d="M 5077.866 1272.407 C 5077.866 1477.486 5025.09 1640.653 4933.537 1761.909 C 4841.984 1883.166 4693.176 1943.794 4532.857 1943.794 C 4378.234 1943.794 4231.475 1900.049 4145.212 1788.558 L 4130.563 1919.38 L 3862.009 1919.38 L 3862.009 44.38 L 4158.64 44.38 L 4158.64 711.532 C 4244.089 610.621 4385.559 574.165 4530.416 574.165 C 4691.549 574.165 4840.967 633.98 4932.926 753.609 C 5024.886 873.238 5077.866 1040.474 5077.866 1255.318 L 5077.866 1272.407 Z M 4820.601 1236.062 C 4816.425 1063.604 4778.672 1008.975 4719.647 924.507 C 4660.622 840.039 4551.949 814.549 4455.953 817.085 C 4358.325 819.665 4236.42 909.317 4195.323 997.542 C 4123.484 1151.763 4126.296 1365.62 4195.323 1511.976 C 4235.051 1596.211 4328.999 1702.095 4458.394 1702.095 C 4551.167 1702.095 4645.275 1688.712 4710.725 1615.255 C 4776.175 1541.798 4810.404 1480.741 4820.601 1273.904 L 4820.601 1236.062 Z" style="fill: url('#gradient-4');" transform="matrix(1, 0, 0, 1, 0, 4.547473508864641e-13)">
		<title>b</title>
	</path>
	<path d="M 6460.383 784.126 L 6876.008 142.036 L 7272.618 142.036 L 6674.987 1023.384 L 7286.2 1919.38 L 6885.516 1919.38 L 6460.383 1267.525 L 6033.89 1919.38 L 5634.563 1919.38 L 6247.136 1023.384 L 5648.145 142.036 L 6044.757 142.036 L 6460.383 784.126 Z" style="fill: url('#gradient-2');" transform="matrix(1, 0, 0, 1, 0, 4.547473508864641e-13)">
		<title>X</title>
	</path>
</svg>
