<?xml version="1.0" encoding="utf-8"?>
<svg viewBox="0 0 7530 2090" xmlns="http://www.w3.org/2000/svg">
  <defs>
    <linearGradient id="lg30oa8WrRnXsJ93" gradientUnits="userSpaceOnUse" x1="48.339973%" y1="75.11961%" x2="66.26826%" y2="37.320576%">
      <stop offset="0" style="stop-color:rgb(51,98,255);"/>
      <stop offset="0.74" style="stop-color:rgb(78,186,255);"/>
      <stop offset="0.99" style="stop-color:rgb(85,206,255);"/>
      <stop offset="1" style="stop-color:rgb(86,205,255);"/>
    </linearGradient>
    <linearGradient id="lg4JBWqA3gDUbjhI" gradientUnits="userSpaceOnUse" x1="10.491368%" y1="97.12919%" x2="26.427624%" y2="-1.9138756%">
      <stop offset="0" style="stop-color:rgb(57,164,88);"/>
      <stop offset="1" style="stop-color:rgb(82,249,191);"/>
    </linearGradient>
    <radialGradient id="rg35mkod6cXx0ClZ" gradientUnits="userSpaceOnUse" cx="86.9%" cy="51.7%" r="23.638779%">
      <stop offset="0" style="stop-color:rgb(255,227,115);"/>
      <stop offset="0.24" style="stop-color:rgb(252,219,20);"/>
      <stop offset="0.33" style="stop-color:rgb(252,219,20);"/>
      <stop offset="0.78" style="stop-color:rgb(241,135,34);"/>
      <stop offset="1" style="stop-color:rgb(239,96,36);"/>
    </radialGradient>
    <linearGradient id="lg1aAASwXgbKAxAV" gradientUnits="userSpaceOnUse" x1="32.403717%" y1="64.5933%" x2="48.73838%" y2="64.5933%">
      <stop offset="0" style="stop-color:rgb(228,60,125);"/>
      <stop offset="0.19" style="stop-color:rgb(231,57,99);"/>
      <stop offset="1" style="stop-color:rgb(239,103,26);"/>
    </linearGradient>
  </defs>
  <g id="l2S8nj9JKXhwstU4ZyS8ON1" fill="rgb(79,190,255)" style="">
    <g style="transform: none;">
      <path id="pXBQ9PjUQ" d="M 3862 1043 l 3 -998 148 -3 147 -3 0 401 0 401 62 -51 c 250 -204 579 -181 809 55 139 143 201 302 201 520 1 83 -5 129 -21 188 -44 162 -140 305 -257 385 l -32 22 -16 -25 c -9 -13 -16 -29 -16 -35 0 -6 -11 -32 -25 -58 -14 -26 -25 -54 -25 -62 0 -26 -24 -70 -38 -70 -8 0 3 -21 26 -47 21 -27 49 -67 61 -90 110 -217 35 -509 -156 -610 -161 -86 -329 -59 -453 73 -32 35 -62 64 -65 64 -12 0 -4 -65 11 -81 34 -38 -19 -129 -74 -129 -17 0 -32 -6 -36 -15 -3 -8 -12 -15 -21 -15 -8 0 -27 -23 -42 -51 -32 -59 -31 -57 -98 -159 l -50 -75 -3 733 c -2 724 -2 732 -22 732 -20 0 -20 -6 -18 -997 z " fill="url(#lg30oa8WrRnXsJ93)"/>
    </g>
  </g>
  <g id="l1epYSQBGqjd001kVK62cmv" fill="rgb(80,242,182)" style="">
    <g style="transform: none;">
      <path id="pKfRAd2wP" d="M 2280 969 c 0 -13 -16 -29 -55 -53 -16 -10 -37 -25 -45 -33 -8 -8 -48 -34 -87 -59 -45 -28 -73 -52 -72 -62 0 -10 35 -136 77 -282 l 77 -265 178 -3 c 132 -2 177 1 177 10 0 11 -64 229 -177 606 -30 99 -51 152 -59 152 -8 0 -14 -5 -14 -11 z " fill="url(#lg4JBWqA3gDUbjhI)"/>
    </g>
  </g>
  <g id="lMIHpyP9wQiCVvpIBfxm13" fill="rgb(250,208,22)" style="">
    <g style="transform: none;">
      <path id="phWpGtGLD" d="M 6237 1643 c -4 -3 -35 -19 -69 -34 -60 -26 -110 -65 -127 -98 -7 -12 26 -63 146 -224 l 154 -207 -22 -32 c -13 -18 -104 -143 -203 -278 -277 -378 -278 -380 -273 -404 12 -46 32 -96 39 -96 5 0 8 -4 8 -10 0 -5 -9 -10 -20 -10 -13 0 -20 -7 -20 -20 0 -19 7 -20 124 -20 l 125 0 22 33 c 21 29 211 288 359 490 l 57 77 168 -226 168 -225 41 6 c 51 9 79 25 138 85 87 87 94 67 -117 355 -101 139 -187 259 -190 268 -4 9 51 92 149 226 86 116 156 215 156 220 0 40 -135 81 -268 81 l -67 0 -80 -111 c -44 -61 -83 -113 -87 -115 -3 -2 -52 59 -109 136 l -103 140 -46 0 c -26 0 -50 -3 -53 -7 z " fill="url(#rg35mkod6cXx0ClZ)"/>
    </g>
  </g>
  <g id="l3k18yZcDGg08CC02xot1q4" fill="rgb(71,149,255)" style="">
    <g style="transform: none;">
      <path id="pIEoycMze" d="M 4515 2054 c -113 -26 -145 -38 -145 -51 0 -16 -31 -63 -67 -103 -13 -14 -23 -28 -23 -31 0 -3 -9 -17 -20 -30 -11 -13 -33 -40 -49 -59 -17 -19 -50 -58 -74 -87 -25 -28 -60 -73 -78 -100 -63 -93 -171 -233 -180 -233 -5 0 -9 -193 -8 -447 1 -322 4 -437 11 -410 7 24 15 36 23 33 20 -7 37 15 140 175 5 9 22 39 38 68 15 28 34 51 42 51 9 0 18 7 21 15 7 18 30 20 37 3 5 -13 76 58 77 76 0 5 7 18 17 28 17 18 14 32 -18 88 -90 161 -114 275 -85 410 32 149 104 246 224 303 59 28 78 32 152 32 72 0 94 -4 142 -27 32 -15 73 -38 91 -52 37 -28 67 -34 67 -12 0 7 7 19 15 26 9 7 13 20 10 28 -3 8 6 37 20 63 14 27 25 55 25 62 0 7 9 23 20 35 l 20 21 -33 24 c -45 34 -82 52 -161 76 -66 20 -210 35 -251 25 z " fill="url(#lg30oa8WrRnXsJ93)"/>
    </g>
  </g>
  <g id="l61ZYroxHTbkpYQPVX61q0j" fill="rgb(73,218,153)" style="">
    <g style="transform: none;">
      <path id="pM45ljImb" d="M 2148 1331 C 2121 1293 1959.345 1202.045 1914.852 1189.148 C 1903.915 1185.978 1904 1170 1964 956 C 1998 835 2032 734 2038 732 C 2045 730 2050 733 2050 738 C 2050 744 2083 769 2123 794 C 2162 819 2206 849 2220 861 C 2233 873 2255 887 2267 893 C 2280 899 2290 907 2290 912 C 2290 917 2295 918 2300 915 C 2322 901 2308 974 2253 1158 C 2207 1311 2211.211 1290.537 2188.063 1364.637 C 2185.379 1373.228 2155 1342 2148 1331 Z" fill="url(#lg4JBWqA3gDUbjhI)"/>
      <path id="pcrBJJR0g" d="M 1690 1165 C 1683 1157 1673 1150 1668 1150 C 1663 1150 1650 1141 1638 1130 C 1626 1119 1609 1110 1600 1110 C 1591 1110 1570 1099 1554 1085 C 1538 1071 1521 1060 1516 1060 C 1512 1060 1480 1038 1446 1011 L 1392.859 972.628 L 1360 866 C 1346 813 1333 770 1330 770 C 1326 770 1322.752 806.208 1306 846 C 1298.644 863.472 1287.215 900.068 1277.537 930.736 C 1267.537 928.736 1254 905 1252 893 C 1250 881 1235 865 1217 855 C 1162 827 1115 796 1075 763 L 1038.661 737.644 L 1105 493 C 1142 362 1177 245 1183 233 C 1193 211 1198 210 1331 210 C 1452 210 1470 212 1479 227 C 1489 246 1757.016 1159.581 1757.016 1174.581 C 1757.016 1189.581 1703 1181 1690 1165 Z" fill="url(#lg4JBWqA3gDUbjhI)"/>
    </g>
  </g>
  <g id="l4HN8uzl1PMvVq39tGDh7ly" fill="rgb(243,152,33)" style="">
    <g style="transform: none;">
      <path id="p11ORemK89" d="M 6080 1942 c 0 -5 -19 -15 -42 -22 -63 -18 -164 -66 -187 -87 -39 -36 -31 -55 81 -206 59 -79 117 -152 129 -163 21 -19 22 -19 15 2 -5 15 3 30 31 57 20 20 40 37 45 37 4 0 36 14 70 31 47 23 72 29 100 26 46 -6 54 -22 -91 177 -75 102 -121 156 -133 156 -10 0 -18 -4 -18 -8 z " fill="url(#rg35mkod6cXx0ClZ)"/>
      <path id="p1CWf1wAnK" d="M 6815 1735 c -55 -76 -108 -151 -118 -167 -17 -28 -17 -28 1 -19 60 32 253 13 298 -30 13 -12 21 -26 18 -30 -3 -5 -1 -9 5 -9 5 0 57 65 116 144 86 118 105 149 100 169 -11 42 -83 67 -220 74 l -100 6 -100 -138 z " fill="url(#rg35mkod6cXx0ClZ)"/>
      <path id="p1CuNTVmNx" d="M 2870 1220 c 0 -20 7 -20 270 -20 233 0 270 -2 270 -15 0 -8 9 -15 20 -15 16 0 20 7 20 35 l 0 35 -290 0 c -283 0 -290 0 -290 -20 z " fill="url(#lg1aAASwXgbKAxAV)"/>
      <path id="pbX4bGzNs" d="M 7080 555 c -9 -25 -80 -102 -122 -134 -26 -20 -85 -30 -97 -18 -8 8 -11 8 -11 -1 0 -7 30 -53 67 -102 l 68 -90 188 0 c 116 0 187 4 185 10 -5 14 -249 349 -259 356 -5 3 -14 -7 -19 -21 z " fill="url(#rg35mkod6cXx0ClZ)"/>
      <path id="pyv3Gz2qc" d="M 5791 321 C 5750 265 5720 217 5723 213 C 5726 210 5803.081 209.46 5887.081 213.46 C 5971.081 218.46 6011 226 5983 228 C 5954 230 5930 234 5929 238 C 5926 272 5917 295 5907 302 C 5901 306 5898 310 5903 310 C 5907 310 5903 325 5894 342 C 5885 360 5874 386 5871 399 C 5865 421 5857 413 5791 321 Z" fill="url(#rg35mkod6cXx0ClZ)"/>
    </g>
  </g>
  <g id="l2S7UFauvKuqwXgFpJmZIP8" fill="rgb(52,100,255)" style="">
    <g style="transform: none;">
      <path id="p5m5N6tgY" d="M 3870 1663 c 1 -311 3 -374 13 -355 7 12 16 20 19 17 6 -7 77 81 167 210 35 50 80 109 100 131 20 23 51 59 68 80 18 22 42 50 53 63 11 13 20 27 20 30 0 3 10 17 23 31 41 45 64 85 69 118 3 24 1 32 -11 32 -27 0 -115 -56 -174 -110 l -57 -52 0 91 0 91 -145 0 -145 0 0 -377 z " fill="url(#lg30oa8WrRnXsJ93)"/>
    </g>
  </g>
  <g id="l5rixo6bUSGdh52N00XWaV7" fill="rgb(232,58,106)" style="">
    <g style="transform: none;">
      <path id="p12nFOZYuY" d="M 2757 1978 c -260 -137 -400 -450 -343 -768 46 -250 204 -445 422 -520 73 -26 94 -26 94 0 0 17 -7 20 -39 20 -36 0 -39 3 -43 30 -3 21 0 34 11 40 12 6 16 28 18 89 l 3 81 -51 47 c -51 47 -79 92 -105 165 l -13 38 67 0 67 0 13 40 c 6 22 12 65 12 95 l 0 55 115 0 c 108 0 115 1 115 20 0 19 -7 20 -201 20 l -201 0 7 48 c 11 72 53 151 113 211 29 30 49 57 44 60 -13 8 -23 221 -11 221 5 0 9 11 9 25 0 14 -6 25 -12 25 -7 0 -48 -19 -91 -42 z " fill="url(#lg1aAASwXgbKAxAV)"/>
    </g>
  </g>
  <g id="l7UvDPmLtQkY1Km0RSKebQj" fill="rgb(67,197,127)" style="">
    <g style="transform: none;">
      <path id="plhLVGjte" d="M 1921 1926 c -13 -13 -36 -30 -52 -36 -16 -7 -29 -15 -29 -19 0 -3 -23 -19 -50 -36 -28 -16 -80 -51 -117 -76 l -67 -45 -58 -200 c -139 -471 -168 -574 -167 -591 0 -10 3 -13 6 -5 2 6 9 12 15 12 6 0 38 23 73 50 35 27 67 50 71 50 5 0 22 11 38 25 16 14 37 25 46 25 9 0 26 9 38 20 12 11 25 20 30 20 5 0 15 7 22 15 6 8 17 13 23 12 5 -1 28 60 51 136 l 40 138 37 -131 c 20 -73 43 -138 50 -146 12 -11 25 -6 90 34 113 70 174 112 164 112 -4 0 0 9 9 19 17 19 15 30 -59 273 -120 398 -106 363 -146 366 -26 2 -40 -3 -58 -22 z " fill="url(#lg4JBWqA3gDUbjhI)"/>
      <path id="pCVmKG26p" d="M 1160 1269 c 0 -23 -158 -139 -190 -139 -6 0 -18 -7 -26 -15 -13 -13 -8 -38 42 -212 31 -109 63 -205 70 -213 12 -13 14 -13 14 0 0 16 57 67 105 94 17 9 45 26 63 36 18 11 36 18 40 16 4 -2 8 12 9 32 2 52 -97 412 -114 412 -7 0 -13 -5 -13 -11 z " fill="url(#lg4JBWqA3gDUbjhI)"/>
      <path id="pwYrPsSAP" d="M 680 1110 c 0 -5 -5 -10 -11 -10 -6 0 -24 -11 -41 -25 -16 -14 -35 -25 -41 -25 -7 0 -25 -11 -41 -25 -16 -14 -32 -25 -36 -25 -3 0 -29 -17 -57 -38 -28 -21 -69 -46 -90 -57 l -40 -19 -102 -329 c -56 -181 -101 -330 -99 -333 2 -2 83 -6 180 -10 l 177 -7 10 24 c 10 23 62 197 190 642 33 114 63 216 66 227 6 17 2 20 -29 20 -20 0 -36 -4 -36 -10 z " fill="url(#lg4JBWqA3gDUbjhI)"/>
    </g>
  </g>
  <g id="laXmZDgqFJEQ7uyHzywWII" fill="rgb(239,105,31)" style="">
    <g style="transform: none;">
      <path id="p147iGxFfy" d="M 3102 1948 c 0 -57 -3 -115 -7 -129 -7 -25 -5 -27 42 -33 84 -13 152 -51 221 -124 l 62 -66 95 49 c 133 71 131 69 115 102 -8 16 -53 66 -100 113 -64 65 -103 95 -160 122 -77 38 -180 68 -236 68 l -32 0 0 -102 z " fill="url(#lg1aAASwXgbKAxAV)"/>
      <path id="pn2llVCNz" d="M 5640 2025 c 0 -9 198 -273 210 -280 6 -3 10 4 10 17 0 13 10 32 22 42 24 21 120 66 183 86 68 22 72 33 30 90 l -37 50 -209 0 c -115 0 -209 -2 -209 -5 z " fill="url(#rg35mkod6cXx0ClZ)"/>
      <path id="pr2C2n3Vm" d="M 6966 1943 c -36 -49 -65 -92 -66 -98 0 -6 36 -10 88 -10 48 -1 105 -7 127 -15 22 -8 42 -14 45 -15 15 -2 37 -23 46 -45 10 -23 16 -18 117 118 59 79 107 145 107 147 0 3 -90 5 -200 5 l -199 0 -65 -87 z " fill="url(#rg35mkod6cXx0ClZ)"/>
      <path id="p1AN9BsWgg" d="M 3157 1423 c -4 -3 -7 -53 -7 -110 l 0 -103 135 0 135 0 -20 -50 c -41 -104 -112 -184 -196 -222 -41 -18 -53 -35 -37 -51 4 -4 5 -57 4 -117 -3 -128 -6 -126 103 -86 184 66 326 208 395 392 31 81 51 191 51 280 l 0 74 -278 0 c -153 0 -282 -3 -285 -7 z " fill="url(#lg1aAASwXgbKAxAV)"/>
    </g>
  </g>
  <g id="l5lWsX2TraRVxxb32YITwJS" fill="rgb(235,76,41)" style="">
    <g style="transform: none;">
      <path id="pZrgcFVay" d="M 2933.213 2044.799 C 2840.836 2024.924 2832 2013 2826 2008 C 2820 2003 2807 1993 2796 1986 C 2780 1975 2779 1970 2791 1949 C 2798 1936 2805 1921 2807 1915 C 2808 1910 2812 1895 2816 1883 C 2820 1869 2818 1860 2811 1860 C 2805 1860 2800 1865 2800 1872 C 2800 1878 2798 1881 2795 1879 C 2793 1876 2797 1854 2804 1830 C 2815 1794 2815 1779 2804 1755 C 2782 1702 2768.418 1683.57 2836.265 1714.771 C 2901.275 1744.667 2980 1782 3044 1787 C 3122 1793 3162.843 1773.94 3177.843 1807.94 C 3184.843 1826.94 3148 1871 3144 1882 C 3135 1913 3137 1976 3149 1998 C 3157 2013 3154.092 2027.353 3140.092 2040.353 C 3117.092 2061.353 3016.214 2062.657 2933.213 2044.799 Z" fill="url(#lg1aAASwXgbKAxAV)"/>
      <path id="p17FeM85Yh" d="M 2943 1423 C 2873.268 1401.31 2810 1416 2810 1411 C 2810 1406 2817 1397 2826 1389 C 2838 1379 2840 1365 2837 1331 C 2827 1248 2818 1220 2802 1220 C 2792 1220 2821.767 1207.924 2826.767 1201.924 C 2832.767 1196.924 2896.908 1198.554 3015.908 1201.554 C 3147.908 1205.554 3216 1216 3201 1221 C 3180 1229 3179 1234 3182 1312 C 3184 1358 3192.538 1418.337 3194.538 1426.337 C 3123.389 1430.63 2976.582 1433.446 2943 1423 Z" fill="url(#lg1aAASwXgbKAxAV)"/>
      <path id="pjUFyfV3z" d="M 2770 1026 c 0 -8 17 -29 37 -47 36 -31 37 -34 36 -96 -2 -51 -6 -67 -23 -81 -17 -14 -19 -22 -11 -49 7 -24 6 -33 -2 -33 -7 0 -6 -5 3 -14 24 -22 173 -56 248 -56 100 0 164 10 153 24 -5 6 -7 49 -5 96 7 129 7 131 -8 146 -11 11 -22 11 -53 3 -57 -16 -171 -6 -231 20 -28 12 -68 40 -90 62 -40 41 -54 48 -54 25 z " fill="url(#lg1aAASwXgbKAxAV)"/>
    </g>
  </g>
  <g id="l4SwnaIId5QCvwQPMQad20B" fill="rgb(61,176,101)" style="">
    <g style="transform: none;">
      <path id="pscYJZ2Nb" d="M 685 2020 C 667 1990 312.349 875.244 317.349 861.244 C 324.349 839.244 665.612 1038.065 737.59 1073.894 C 782.083 1239.953 750 1115 791 1258 C 815 1341 837 1410 841 1410 C 844 1410 850 1395 854 1378 C 867 1311 933 1085 942 1072 C 950 1063 957 1065 971 1081 C 982 1093 990 1098 990 1092 C 990 1087 1023 1104 1063 1131 C 1102 1159 1146 1189 1160 1198 C 1174 1207 1186 1226 1188 1241 C 1190 1261 1045 1797 986 1985 L 973 2025 L 832 2028 C 744 2030 689 2027 685 2020 Z" fill="url(#lg4JBWqA3gDUbjhI)"/>
      <path id="p17pFaYKfK" d="M 1672 1933 c -62 -200 -73 -245 -67 -261 4 -10 9 -13 13 -6 6 10 100 74 207 143 22 14 46 32 53 39 7 6 17 12 22 12 5 0 25 14 44 31 25 22 41 29 56 24 24 -8 24 -3 5 63 l -16 52 -144 0 -143 0 -30 -97 z " fill="url(#lg4JBWqA3gDUbjhI)"/>
    </g>
  </g>
</svg>